<svg xmlns="http://www.w3.org/2000/svg" width="120" height="120" viewBox="0 0 120 120" fill="none">
  <defs>
    <linearGradient id="heeyGradient" x1="0" y1="0" x2="1" y2="0">
      <stop offset="0%" stop-color="#B9FF00"/>
      <stop offset="100%" stop-color="#E3FF00"/>
    </linearGradient>
  </defs>
  <rect width="120" height="120" rx="30" fill="url(#heeyGradient)"/>
  <g transform="translate(21 21) scale(3.25)" stroke="#1A1A1A" stroke-width="2" stroke-linecap="round" stroke-linejoin="round" fill="none">
    <path d="M3 7V5a2 2 0 0 1 2-2h2"/>
    <path d="M17 3h2a2 2 0 0 1 2 2v2"/>
    <path d="M21 17v2a2 2 0 0 1-2 2h-2"/>
    <path d="M7 21H5a2 2 0 0 1-2-2v-2"/>
    <path d="M7 8h8"/>
    <path d="M7 12h10"/>
    <path d="M7 16h6"/>
  </g>
</svg>
